<svg xmlns="http://www.w3.org/2000/svg" viewBox="0 0 500 150">
  <defs>
    <style>
      .cls-1 { fill: #a7194b; }
      .cls-2 { fill: #e89ca9; font-family:sans-serif; font-weight: bold; }
      .cls-3 { fill: #a7194b; font-family:sans-serif; font-weight: bold; font-size: 60px; }
      .cls-4 { fill: #e89ca9; font-family:sans-serif; font-size: 45px; }
    </style>
  </defs>
  <g id="Layer_1-2" data-name="Layer 1">
    <g>
      <path class="cls-1" d="M82.84,141c-3.12-5.78-7.57-11-11.86-16.17-3.32-4.01-6.56-8.1-9.48-12.4-8.03-11.84-15.82-23.81-23.86-35.62-6.81-10.01-16.27-17.66-27.87-21.43-4.68-1.52-9.39-2.53-12.64.29-3.53,3.07-3.5,7.77-2.75,11.99,1.89,10.68,6.14,20.83,11.63,30.32,5.36,9.27,12.41,17.08,20.29,23.85,6.9,5.93,13.84,11.82,20.4,18.09,4.45,4.25,7.45,9.3,9.17,15.28.38,1.31,1.2,3.12,2.73,3.46,1.5.34,2.83-1.17,3.74-2.34,4.16-5.35,8.34-10.68,12.5-16.02.92-1.18,1.79-2.4,2.78-3.52-1.16-5.99,1.67-11.41,5.74-15.89,7.63-8.4,14.87-17.16,21.49-26.43,2.38-3.33,4.86-6.65,6.62-10.34,1.86-3.9,1.83-7.71-.94-11.07-2.73-3.31-6.87-4.26-11.01-3.08-7.94,2.26-14.51,6.97-20.29,12.8-5.52,5.57-10.59,11.59-15.12,18.01-1.12,1.58-2.71,3.96-4.8,3.52-2.01-.43-2.6-3.11-3.21-5.07-2.95-9.51-6.24-18.92-11.37-27.54-1.87-3.14-3.64-6.38-6.17-9.01-3.08-3.2-7.12-4.49-11.39-3.41-5.88,1.49-8.39,6.3-8.86,11.78-.56,6.46,1.08,12.46,4.05,18.07,5.07,9.58,12.38,17.17,20.4,23.95,2.25,1.9,4.67,3.6,7.31,5.62-2.44-4.32-5.52-8.18-8.87-11.84-6.56-7.16-14.01-13.17-22.63-17.85-2.87-1.56-5.95-2.88-9.19-3.46-1.39-.25-3.82.29-4.23,1.38-.42,1.13,1.2,2.86,2.25,4,6.28,6.82,11.99,14.2,16.72,22.23,4.37,7.41,7.74,15.32,10.21,23.66.56,1.89,1.08,3.82,1.29,5.84.85,8.25,4.95,14.64,12.4,18.39,1.88.95,4.19,1.53,6.29,1.4,2.25-.13,4.74-1.11,6.36-2.58,5.2-4.72,9.39-10.32,12.28-16.81Z"/>
      <path class="cls-1" d="M138.65,140.74c3.41-2.6,6.94-5.09,10.22-7.86,10.14-8.54,20.07-17.34,29.39-26.79,9.21-9.34,16.75-19.92,21.6-32.44,2.41-6.23,3.58-12.72,3.83-19.38.09-2.38.17-4.91-1.49-6.65-1.79-1.88-4.57-2.46-6.99-1.99-4.83.95-8.5,3.76-11.56,7.6-5.46,6.84-9.59,14.63-13.57,22.41-4.9,9.59-9.47,19.35-15.39,28.38-1.75,2.67-3.57,5.6-6.83,6.65-2.9.94-5.04-.94-6.72-2.99-7.15-8.72-13.72-17.89-18.82-28.07-3.65-7.3-6.46-14.98-8.31-22.95-.56-2.41-.91-5.47-2.83-7.04-2.03-1.67-4.91-1.3-7.31-.21-4.95,2.25-8.05,6.21-9.93,11.27-2.51,6.75-3.11,13.7-1.87,20.75,1.54,8.76,5.32,16.69,10.82,23.74,6.8,8.7,14.79,16.19,23.32,23.02,1.45,1.16,3.85,2.36,3.96,3.76.1,1.29-2.08,2.9-3.55,3.8-6.92,4.25-12.08,10.32-15.18,17.85-.61,1.49-1.07,3.05-1.6,4.58,3.18-.24,6.44.22,9.49-1.16,6.43-2.91,11.01-7.82,14.68-13.62,4.22-6.67,8.82-13.11,13.67-19.33,7.9-10.12,16.9-19.19,26.63-27.53,6.82-5.85,13.91-11.45,21.91-15.56,3.39-1.74,7.51-3.02,11.15-2.12,3.49.86,5.81,3.67,6.35,7.26.66,4.37-.74,8.4-2.93,12.17-5.31,9.15-11.7,17.58-19.02,25.26-8.6,9.03-17.96,17.27-27.95,24.81-5.56,4.2-11.69,7.6-18.07,10.45-4.04,1.8-8.41,2.83-12.83,2.42-4.63-.44-8.39-3.39-11.26-7.11Z"/>
      <circle class="cls-1" cx="112.42" cy="89.15" r="7.59"/>
      <circle class="cls-1" cx="104.28" cy="56.04" r="5.5"/>
      <circle class="cls-1" cx="121.57" cy="40.61" r="4.58"/>
      <circle class="cls-1" cx="134.93" cy="66.51" r="6.23"/>
    </g>
  </g>
  <text transform="translate(218.7 77.95)" class="cls-3">Thadasthu</text>
  <text transform="translate(224.9 126.66)" class="cls-4">Matrimony</text>
</svg>
